<?xml version="1.0" standalone="no"?><!DOCTYPE svg PUBLIC "-//W3C//DTD SVG 1.1//EN" "http://www.w3.org/Graphics/SVG/1.1/DTD/svg11.dtd"><svg t="1601042188754" class="icon" viewBox="0 0 1024 1024" version="1.1" xmlns="http://www.w3.org/2000/svg" p-id="3141" xmlns:xlink="http://www.w3.org/1999/xlink" width="200" height="200"><defs><style type="text/css"></style></defs><path d="M1024 700.988235V196.969412A196.969412 196.969412 0 0 0 827.030588 0H196.969412A196.969412 196.969412 0 0 0 0 196.969412v630.061176A196.969412 196.969412 0 0 0 196.969412 1024h630.061176A196.969412 196.969412 0 0 0 1020.988235 861.816471c-52.254118-22.437647-278.588235-120.470588-396.498823-176.489412C534.889412 793.901176 440.771765 858.352941 299.218824 858.352941S62.945882 771.915294 74.390588 665.148235c7.529412-70.174118 55.567059-184.621176 264.282353-165.647059 110.08 10.390588 160.376471 30.870588 250.277647 60.235295A708.668235 708.668235 0 0 0 645.872941 421.647059H248.169412v-39.604706h196.668235v-70.927059H204.8v-43.369412h240.037647V165.647059a19.275294 19.275294 0 0 1 19.877647-15.962353h98.484706v118.211765h256v43.369411h-256v70.927059h208.715294a803.990588 803.990588 0 0 1-84.630588 212.630588c60.235294 21.835294 336.715294 106.315294 336.715294 106.315295z m-740.442353 90.352941c-149.684706 0-173.327059-94.569412-165.647059-133.872941s51.2-90.352941 134.324706-90.352941c95.623529 0 180.705882 24.395294 284.009412 74.541177-72.131765 93.967059-160.828235 150.588235-252.988235 150.588235z m0 0" fill="#1294FF" p-id="3142"></path></svg>