<?xml version="1.0" standalone="no"?><!DOCTYPE svg PUBLIC "-//W3C//DTD SVG 1.1//EN" "http://www.w3.org/Graphics/SVG/1.1/DTD/svg11.dtd"><svg t="1601042448676" class="icon" viewBox="0 0 1024 1024" version="1.1" xmlns="http://www.w3.org/2000/svg" p-id="5627" xmlns:xlink="http://www.w3.org/1999/xlink" width="200" height="200"><defs><style type="text/css"></style></defs><path d="M512 1017.831325A505.967036 505.967036 0 0 1 315.108241 45.919614a505.967036 505.967036 0 0 1 393.783518 932.160772A502.635952 502.635952 0 0 1 512 1017.831325z m0-288.077108a15.96453 15.96453 0 0 1 11.732819 4.04665c27.080482 25.18053 75.776 30.473253 111.875085 30.473253 45.808578 0 63.747084-17.408 70.322891-27.78371a42.058024 42.058024 0 0 0 1.912289-37.999037 55.814169 55.814169 0 0 0-40.787277-32.360867 225.983229 225.983229 0 0 0 40.010024-73.653976c11.621783 24.538988 28.474602 41.675566 40.997012 41.675566a9.758843 9.758843 0 0 0 8.031615-3.824578 78.61359 78.61359 0 0 0 8.537446-43.822265 167.257446 167.257446 0 0 0-24.563663-72.420241 300.87094 300.87094 0 0 0-37.542554-49.583807 69.743036 69.743036 0 0 0 2.714217-28.869398 69.089157 69.089157 0 0 0-20.331952-43.84694v-1.899951a185.418024 185.418024 0 0 0-50.385735-130.331759 171.785253 171.785253 0 0 0-245.204819 0A185.405687 185.405687 0 0 0 338.968675 389.860241v1.899952a74.024096 74.024096 0 0 0-17.617735 72.716337 301.352096 301.352096 0 0 0-37.530217 49.583807 167.245108 167.245108 0 0 0-24.563663 72.420241 78.823325 78.823325 0 0 0 8.562121 43.822265 9.746506 9.746506 0 0 0 8.031614 3.824579c12.52241 0 29.375229-17.136578 40.984675-41.675567a225.773494 225.773494 0 0 0 40.010024 73.653976 55.814169 55.814169 0 0 0-40.799614 32.360868 42.070361 42.070361 0 0 0 1.899951 37.999036c6.612819 10.375711 24.551325 27.783711 70.322892 27.783711 36.099084 0 84.80694-5.292723 111.887422-30.473253a16.038554 16.038554 0 0 1 11.843855-4.021976z" fill="#00BAEF" p-id="5628"></path></svg>