<?xml version="1.0" standalone="no"?><!DOCTYPE svg PUBLIC "-//W3C//DTD SVG 1.1//EN" "http://www.w3.org/Graphics/SVG/1.1/DTD/svg11.dtd"><svg t="1601042240297" class="icon" viewBox="0 0 1024 1024" version="1.1" xmlns="http://www.w3.org/2000/svg" p-id="3155" xmlns:xlink="http://www.w3.org/1999/xlink" width="200" height="200"><defs><style type="text/css"></style></defs><path d="M877.703315 1023.974401H146.296685A146.475876 146.475876 0 0 1 0 877.677716V146.271086A146.475876 146.475876 0 0 1 146.296685-0.025599h731.40663a146.475876 146.475876 0 0 1 146.296685 146.296685v731.40663a146.475876 146.475876 0 0 1-146.296685 146.296685zM738.011099 779.225039l69.756513 38.60287-19.096646-64.329584c57.443528-43.517824 89.057947-96.19999 89.057948-148.088595 0-101.114944-98.836658-186.537873-215.899605-186.537874-119.238838 0-216.232388 83.682216-216.232389 186.537874s96.99355 186.691465 216.232389 186.691465a316.297785 316.297785 0 0 0 75.79781-12.79936h0.409579zM411.089846 219.329834c-145.912704 0-264.79316 97.275136-264.793161 216.846757 0 66.889456 35.60782 124.716964 105.901905 171.895405l-26.443478 76.796161 92.539373-44.592971c4.249388 0.79356 8.345183 1.612719 12.338583 2.40628l3.737413 0.716764h0.307185a376.710764 376.710764 0 0 0 76.386581 9.573921c7.551622 0 15.589621-0.332783 24.651567-0.972751a187.485026 187.485026 0 0 1-8.19159-53.373331 190.556872 190.556872 0 0 1 65.455927-142.584871 237.504925 237.504925 0 0 1 159.684816-59.107445 245.00535 245.00535 0 0 1 25.59872 1.459127c-22.936453-102.062097-137.746713-179.037448-267.173841-179.037448z m320.342382 354.004699a25.726714 25.726714 0 0 1 0-51.453427 26.315484 26.315484 0 1 1 0 51.453427z m-139.79461 0a25.726714 25.726714 0 0 1 0-51.453427 26.315484 26.315484 0 1 1 0 51.453427z m-81.250337-181.750912c-19.147843 0-39.80601-12.184991-39.80601-31.870407s20.658167-31.844808 39.80601-31.844807a30.436878 30.436878 0 0 1 33.047947 31.844807 30.718464 30.718464 0 0 1-33.047947 31.768012z m-185.334734 0c-19.19904 0-39.908405-12.184991-39.908404-31.870407s20.709365-31.844808 39.908404-31.844807a31.870406 31.870406 0 1 1 0 63.715214z" fill="#1AAD19" p-id="3156"></path></svg>